<svg width="11" height="11" viewBox="0 0 11 11" fill="none" xmlns="http://www.w3.org/2000/svg">
<path d="M10.5909 4.5662C10.6439 4.30452 10.4321 3.99049 10.1673 3.99049L7.14887 3.57179L5.77205 0.850259C5.71909 0.745585 5.66614 0.693247 5.56023 0.64091C5.29546 0.483898 4.97773 0.588573 4.81887 0.850259L3.495 3.57179L0.476591 3.99049C0.317727 3.99049 0.211818 4.04283 0.158864 4.1475C-0.0529546 4.35685 -0.0529546 4.67088 0.158864 4.88022L2.33 6.97371L1.80046 9.95693C1.80046 10.0616 1.80046 10.1663 1.85341 10.271C2.01227 10.5326 2.33 10.6373 2.59477 10.4803L5.29546 9.0672L7.99614 10.4803C8.04909 10.5326 8.155 10.5326 8.26091 10.5326H8.36682C8.63159 10.4803 8.84341 10.2186 8.79046 9.9046L8.26091 6.92138L10.4321 4.82789C10.538 4.77555 10.5909 4.67088 10.5909 4.5662Z" fill="#B2B2B2"/>
</svg>
