<?xml version="1.0" encoding="UTF-8"?>
<svg id="Layer_2" data-name="Layer 2" xmlns="http://www.w3.org/2000/svg" viewBox="0 0 324.51 63.65">
  <defs>
    <style>
      .cls-1 {
        fill: #003bad;
        stroke-width: 0px;
      }
    </style>
  </defs>
  <g id="Layer_1-2" data-name="Layer 1">
    <g>
      <g>
        <polygon class="cls-1" points="144.25 29.68 141.4 24.75 133.49 24.75 136.9 30.65 140.3 36.52 137.45 41.44 134.05 35.57 130.56 29.55 129.42 27.57 127.79 24.75 119.81 24.75 125.43 34.45 126.57 36.43 123.72 41.35 122.58 39.38 115.74 27.57 114.11 24.75 108.93 24.75 108.93 29.48 111.78 34.39 118.63 46.2 119.3 47.37 127.21 47.37 130.06 42.46 132.91 47.37 140.88 47.37 143.73 42.45 147.69 35.62 144.25 29.68"/>
        <path class="cls-1" d="m169.24,27.65c-1.12-1.07-2.44-1.89-3.96-2.47-1.52-.58-3.19-.87-5.02-.87s-3.48.29-5.01.87c-1.53.58-2.86,1.41-3.99,2.47s-2.01,2.31-2.63,3.73c-.62,1.42-.94,2.98-.94,4.68s.31,3.26.94,4.68c.62,1.42,1.5,2.67,2.63,3.73s2.46,1.89,3.99,2.47c1.53.58,3.2.87,5.01.87s3.5-.29,5.02-.87c1.52-.58,2.84-1.4,3.96-2.45,1.12-1.06,2-2.3,2.63-3.73.64-1.43.95-3,.95-4.7s-.32-3.26-.95-4.68c-.63-1.42-1.51-2.67-2.63-3.73Zm-3.34,11.06c-.31.8-.74,1.48-1.29,2.05-.55.57-1.19,1.01-1.94,1.31-.74.3-1.55.45-2.41.45s-1.66-.15-2.41-.45c-.74-.3-1.39-.74-1.94-1.31-.55-.57-.98-1.25-1.29-2.05-.31-.8-.47-1.68-.47-2.65s.16-1.88.47-2.67c.31-.79.74-1.46,1.29-2.03s1.2-1.01,1.94-1.31c.74-.3,1.55-.45,2.41-.45s1.66.15,2.41.45c.74.3,1.39.74,1.94,1.31.55.57.98,1.25,1.29,2.03.31.79.47,1.67.47,2.67s-.16,1.85-.47,2.65Z"/>
        <path class="cls-1" d="m191.98,37.53c.82-1.24,1.23-2.71,1.23-4.41s-.41-3.21-1.23-4.47c-.82-1.26-1.98-2.22-3.47-2.89-1.5-.67-3.28-1-5.35-1h-10.34v22.61h6.4v-6.01h3.49l4.1,6.01h6.85l-4.89-7.13c1.37-.65,2.44-1.55,3.21-2.71Zm-6.22-1.99c-.66.58-1.65.87-2.99.87h-3.55v-6.62h3.55c1.34,0,2.33.29,2.99.87.66.58.98,1.4.98,2.46s-.33,1.84-.98,2.42Z"/>
        <polygon class="cls-1" points="241.29 39.32 236.72 24.75 230.84 24.75 226.06 39.19 221.51 24.75 215.79 24.75 214.92 24.75 208.75 24.75 199.99 34.15 199.99 24.75 193.66 24.75 193.66 47.37 199.99 47.37 199.99 41.7 202.37 39.16 208.84 47.37 216.27 47.37 206.56 34.76 215.15 25.45 222.25 47.37 229.1 47.37 233.62 33.6 237.95 47.37 244.8 47.37 252.13 24.75 246.03 24.75 241.29 39.32"/>
        <polygon class="cls-1" points="258.46 38.29 268.51 38.29 268.51 33.51 258.46 33.51 258.46 29.7 269.87 29.7 269.87 24.75 252.13 24.75 252.13 47.37 270.29 47.37 270.29 42.42 258.46 42.42 258.46 38.29"/>
        <path class="cls-1" d="m293.75,39.49l-6.13-14.74h-7.3l-9.98,22.61h6.53l1.76-4.39h9.59l1.76,4.39h6.69l9.69-22.61h-6.33l-6.28,14.74Zm-7.43-1.24h-5.8l2.88-7.19.6,1.41,2.32,5.77Z"/>
        <polygon class="cls-1" points="312.69 42.42 312.69 38.29 322.73 38.29 322.73 33.51 312.69 33.51 312.69 29.7 324.09 29.7 324.09 24.75 306.36 24.75 306.36 47.37 324.51 47.37 324.51 42.42 312.69 42.42"/>
      </g>
      <g>
        <polygon class="cls-1" points="6.12 35.76 0 25.19 0 46.33 10.04 63.65 22.29 63.65 20.83 61.13 6.12 35.76"/>
        <polygon class="cls-1" points="89.43 27.82 82.04 15.07 82.03 15.04 79.41 10.52 74.73 2.46 73.31 0 61.16 0 61.11 .08 61.06 0 56.24 0 50.14 10.52 44.05 0 26.84 0 20.75 10.52 14.65 0 0 0 0 15.04 11.12 15.04 14.62 21.09 29.32 46.47 31.78 50.71 37.9 40.14 35.44 35.89 23.37 15.04 40.52 15.04 44.02 21.09 46.48 25.33 53.98 38.28 61.28 50.9 67.41 40.32 60.1 27.71 52.77 15.04 69.78 15.04 75.92 25.63 83.31 38.39 90.38 50.61 96.51 40.04 89.43 27.82"/>
        <polygon class="cls-1" points="39.28 63.65 51.53 63.65 45.4 53.09 39.28 63.65"/>
        <polygon class="cls-1" points="68.67 63.65 68.68 63.65 80.92 63.65 74.79 53.08 68.67 63.65"/>
      </g>
    </g>
  </g>
</svg>