<svg width="45" height="47" viewBox="0 0 45 47" fill="none" xmlns="http://www.w3.org/2000/svg">
<path fill-rule="evenodd" clip-rule="evenodd" d="M33.0131 5.50264V5.44847L38.7999 8.22241V13.2659L33.0131 16.166V11.564L21.8855 5.84958L21.7544 0L33.0131 5.50264ZM21.9089 22.5323L12.4837 17.7248V17.5056L12.2821 17.6219L12.2651 17.6132V17.6318L6.69693 20.8465V32.384L12.4837 35.0555V23.4691L21.8933 28.3166L21.9023 28.3001L21.9085 28.3115L39.5759 19.6351L39.5164 32.5284L22.3308 40.9891V46.7323L39.4887 38.5271L39.4887 38.5387L44.9999 35.9564V11.4145L39.6265 8.66372L39.6037 13.6026L21.9089 22.5323ZM6.69825 33.4787L21.5515 40.9288V46.8L6.69825 38.9166L6.69825 33.4787ZM0.0820372 16.5515L21.1389 5.9127L21.1005 0.0209964L0 11.0307L0.0820372 16.5515ZM0.083648 23.0064L0.0819338 23.0073L0.00557114 17.4836L21.1491 6.63229L21.1796 11.6389L5.87042 19.8882V38.6727L0.083648 35.3816V23.0064ZM32.8752 23.8826L38.6619 21.0557V31.9716L32.8752 34.8545V23.8826Z" fill="#3A1CF5"/>
</svg>
